<svg width="180" height="79" viewBox="0 0 180 79" fill="none" xmlns="http://www.w3.org/2000/svg">
<path fill-rule="evenodd" clip-rule="evenodd" d="M23.1415 56.0106L20.4768 53.3633L21.8793 49.1834L14.5862 50.5767L24.4038 34.6931L32.1177 33.4392C32.8189 31.9994 35.3996 27.9496 40.112 23.2681C46.0026 17.4162 59.1863 11.0071 69.4247 10.0317C68.4429 20.2028 61.9913 33.2998 56.1007 39.1517C51.3883 43.8332 47.3116 46.3968 45.8624 47.0935L44.6001 54.7566L28.6114 64.5097L30.0139 57.2645L25.8063 58.6578L23.1415 56.0106ZM42.2158 33.1605C41.1314 34.2378 41.1314 35.9844 42.2158 37.0617C43.3002 38.139 45.0584 38.139 46.1429 37.0617C47.2273 35.9844 47.2273 34.2378 46.1429 33.1605C45.0584 32.0832 43.3002 32.0832 42.2158 33.1605ZM49.2284 26.194C48.144 27.2713 48.144 29.0179 49.2284 30.0952C50.3128 31.1725 52.071 31.1725 53.1555 30.0952C54.2399 29.0179 54.2399 27.2713 53.1555 26.194C52.071 25.1167 50.3128 25.1167 49.2284 26.194Z" fill="#EC9301"/>
<path d="M10.0981 68.9682C10.7059 66.7854 12.8751 61.4723 16.69 57.6825C18.4852 55.8991 20.5235 57.0323 21.3183 57.8219C22.113 58.6114 23.2538 60.6363 21.4585 62.4198C17.6437 66.2095 12.2954 68.3645 10.0981 68.9682Z" fill="#EC9301"/>
<path d="M87.2604 14.6847H88.7868L96.4189 32.9327H94.5044L92.1242 27.227H83.8712L81.5169 32.9327H79.5765L87.2604 14.6847ZM91.7103 25.8134L88.0107 16.7922L84.2593 25.8134H91.7103Z" fill="black"/>
<path d="M112.16 30.2598C110.452 32.1274 108.486 33.0612 106.261 33.0612C105.019 33.0612 103.872 32.7956 102.82 32.2645C101.785 31.7333 100.88 31.0308 100.103 30.1569C99.3445 29.2831 98.7495 28.2979 98.3183 27.2013C97.8871 26.0875 97.6715 24.9481 97.6715 23.783C97.6715 22.5664 97.8784 21.4013 98.2924 20.2876C98.7236 19.1739 99.3186 18.1972 100.078 17.3576C100.836 16.5009 101.733 15.8241 102.768 15.3272C103.803 14.8132 104.933 14.5562 106.157 14.5562C107.054 14.5562 107.873 14.659 108.615 14.8646C109.357 15.053 110.012 15.3272 110.581 15.687C111.168 16.0297 111.668 16.4495 112.082 16.9464C112.513 17.4261 112.875 17.9573 113.169 18.5399L111.771 19.4651C111.168 18.3343 110.383 17.5033 109.417 16.9721C108.451 16.4409 107.356 16.1753 106.131 16.1753C105.114 16.1753 104.191 16.3895 103.363 16.8179C102.553 17.2462 101.854 17.8202 101.268 18.5399C100.698 19.2424 100.259 20.0563 99.9482 20.9815C99.6377 21.8896 99.4825 22.832 99.4825 23.8087C99.4825 24.8367 99.655 25.8134 99.9999 26.7387C100.362 27.6639 100.854 28.4778 101.475 29.1803C102.096 29.8657 102.82 30.414 103.648 30.8252C104.493 31.2364 105.407 31.442 106.39 31.442C107.442 31.442 108.443 31.2021 109.391 30.7224C110.357 30.2255 111.28 29.4459 112.16 28.3835V25.3508H108.072V23.9629H113.686V32.9327H112.16V30.2598Z" fill="black"/>
<path d="M117.924 32.9327V14.6847H119.735V32.9327H117.924Z" fill="black"/>
<path d="M124.859 32.9327V14.6847H126.67V31.3392H137.277V32.9327H124.859Z" fill="black"/>
<path d="M152.801 31.3392V32.9327H140.46V14.6847H152.568V16.2782H142.271V22.8577H151.248V24.3741H142.271V31.3392H152.801Z" fill="black"/>
<path d="M93.9353 58.6397V63.0089H80.8442V44.7609H93.7024V49.1301H85.8892V51.7003H92.5641V55.7611H85.8892V58.6397H93.9353Z" fill="black"/>
<path d="M101.844 54.0391V63.0089H96.7987V44.7609H100.731L108.105 54.0391V44.7609H113.15V63.0089H109.139L101.844 54.0391Z" fill="black"/>
<path d="M129.291 61.4925C127.98 62.5891 126.471 63.1374 124.763 63.1374C123.573 63.1374 122.435 62.9318 121.348 62.5206C120.262 62.0922 119.313 61.4754 118.503 60.6701C117.692 59.8648 117.045 58.8795 116.562 57.7144C116.079 56.5493 115.838 55.2214 115.838 53.7307C115.838 52.4456 116.079 51.2548 116.562 50.1582C117.045 49.0444 117.709 48.0849 118.554 47.2796C119.399 46.4572 120.391 45.8146 121.53 45.352C122.685 44.8722 123.927 44.6323 125.255 44.6323C126.083 44.6323 126.876 44.7266 127.635 44.9151C128.394 45.0864 129.093 45.352 129.731 45.7118C130.386 46.0545 130.973 46.4743 131.49 46.9712C132.007 47.4509 132.43 47.9992 132.758 48.6161L129.006 51.4689C128.644 50.7493 128.101 50.1753 127.376 49.7469C126.652 49.3014 125.885 49.0787 125.074 49.0787C124.47 49.0787 123.918 49.1986 123.418 49.4385C122.918 49.6784 122.487 50.0125 122.125 50.4409C121.762 50.8692 121.478 51.3833 121.271 51.983C121.064 52.5655 120.96 53.2081 120.96 53.9106C120.96 54.6302 121.064 55.2813 121.271 55.8639C121.478 56.4465 121.762 56.9519 122.125 57.3803C122.504 57.7915 122.952 58.1171 123.47 58.3569C123.987 58.5797 124.565 58.6911 125.203 58.6911C126.669 58.6911 127.963 58.0914 129.084 56.892H125.902V53.2937H133.456V63.0089H129.291V61.4925Z" fill="black"/>
<path d="M136.464 63.0089V44.7609H141.509V63.0089H136.464Z" fill="black"/>
<path d="M150.238 54.0391V63.0089H145.193V44.7609H149.125L156.499 54.0391V44.7609H161.544V63.0089H157.533L150.238 54.0391Z" fill="black"/>
<path d="M178.306 58.6397V63.0089H165.215V44.7609H178.073V49.1301H170.26V51.7003H176.935V55.7611H170.26V58.6397H178.306Z" fill="black"/>
</svg>
